<svg width="40" height="40" viewBox="0 0 40 40" fill="none" xmlns="http://www.w3.org/2000/svg">
<path fill-rule="evenodd" clip-rule="evenodd" d="M20 40C31.0457 40 40 31.0457 40 20C40 8.9543 31.0457 0 20 0C8.9543 0 0 8.9543 0 20C0 31.0457 8.9543 40 20 40Z" fill="black" fill-opacity="0.08"/>
<path d="M12.5 27.5H13.6L24.675 16.425L23.575 15.325L12.5 26.4V27.5ZM27.85 15.35L24.65 12.15L25.7 11.1C25.9833 10.8167 26.3333 10.675 26.75 10.675C27.1667 10.675 27.5167 10.8167 27.8 11.1L28.9 12.2C29.1833 12.4833 29.325 12.8333 29.325 13.25C29.325 13.6667 29.1833 14.0167 28.9 14.3L27.85 15.35ZM26.8 16.4L14.2 29H11V25.8L23.6 13.2L26.8 16.4ZM24.125 15.875L23.575 15.325L24.675 16.425L24.125 15.875Z" fill="black" fill-opacity="0.87"/>
</svg>
